<?xml version="1.0" encoding="UTF-8" standalone="no"?>
<!-- Created with Inkscape (http://www.inkscape.org/) -->

<svg
   xmlns:dc="http://purl.org/dc/elements/1.1/"
   xmlns:cc="http://creativecommons.org/ns#"
   xmlns:rdf="http://www.w3.org/1999/02/22-rdf-syntax-ns#"
   xmlns:svg="http://www.w3.org/2000/svg"
   xmlns="http://www.w3.org/2000/svg"
   version="1.1"
   width="88.462036"
   height="66.869698"
   id="svg3839">
  <defs
     id="defs3841">
    <radialGradient
       cx="40.700001"
       cy="-4.2997999"
       r="3.5875001"
       id="radialGradient26"
       gradientUnits="userSpaceOnUse"
       gradientTransform="matrix(0.8,0,0,-0.8,-6.853e-7,21.64)">
      <stop
         id="stop28"
         style="stop-color:#f7e35e;stop-opacity:1"
         offset="0" />
      <stop
         id="stop30"
         style="stop-color:#b6952a;stop-opacity:1"
         offset="0.72939998" />
      <stop
         id="stop32"
         style="stop-color:#805f1c;stop-opacity:1"
         offset="1" />
    </radialGradient>
    <radialGradient
       cx="42.349998"
       cy="-8.6499004"
       r="2.2249999"
       id="radialGradient46"
       gradientUnits="userSpaceOnUse"
       gradientTransform="matrix(0.8,0,0,-0.8,-6.853e-7,14.68)">
      <stop
         id="stop48"
         style="stop-color:#a38925;stop-opacity:1"
         offset="0" />
      <stop
         id="stop50"
         style="stop-color:#634d11;stop-opacity:1"
         offset="1" />
    </radialGradient>
    <radialGradient
       cx="44.799999"
       cy="-7.4502001"
       r="3.0875001"
       id="radialGradient64"
       gradientUnits="userSpaceOnUse"
       gradientTransform="matrix(0.8,0,0,-0.8,-6.853e-7,16.6)">
      <stop
         id="stop66"
         style="stop-color:#f7e35e;stop-opacity:1"
         offset="0" />
      <stop
         id="stop68"
         style="stop-color:#b6952a;stop-opacity:1"
         offset="0.72939998" />
      <stop
         id="stop70"
         style="stop-color:#805f1c;stop-opacity:1"
         offset="1" />
    </radialGradient>
    <linearGradient
       x1="3.8374"
       y1="-12.678"
       x2="44.037998"
       y2="-12.678"
       id="linearGradient84"
       gradientUnits="userSpaceOnUse"
       gradientTransform="matrix(0.8,0,0,0.8,-6.853e-7,28.52)">
      <stop
         id="stop86"
         style="stop-color:#c8a123;stop-opacity:1"
         offset="0" />
      <stop
         id="stop88"
         style="stop-color:#debe36;stop-opacity:1"
         offset="0.2902" />
      <stop
         id="stop92"
         style="stop-color:#fefced;stop-opacity:1"
         offset="0.92159998" />
      <stop
         id="stop94-6"
         style="stop-color:#fefced;stop-opacity:1"
         offset="1" />
    </linearGradient>
    <linearGradient
       x1="5.3125"
       y1="-18.51"
       x2="41.786999"
       y2="-18.51"
       id="linearGradient108"
       gradientUnits="userSpaceOnUse"
       gradientTransform="matrix(0.8,0,0,0.8,-6.853e-7,28.52)">
      <stop
         id="stop110"
         style="stop-color:#805f1c;stop-opacity:1"
         offset="0" />
      <stop
         id="stop112"
         style="stop-color:#b6952a;stop-opacity:1"
         offset="0.2157" />
      <stop
         id="stop114"
         style="stop-color:#f8e87a;stop-opacity:1"
         offset="0.85100001" />
      <stop
         id="stop116"
         style="stop-color:#f8e87a;stop-opacity:1"
         offset="1" />
    </linearGradient>
    <linearGradient
       x1="11.45"
       y1="-31.216"
       x2="43.900002"
       y2="-31.216"
       id="linearGradient130"
       gradientUnits="userSpaceOnUse"
       gradientTransform="matrix(0.8,0,0,0.8,-6.853e-7,28.52)">
      <stop
         id="stop132"
         style="stop-color:#c8a123;stop-opacity:1"
         offset="0" />
      <stop
         id="stop134"
         style="stop-color:#debe36;stop-opacity:1"
         offset="0.2902" />
      <stop
         id="stop138"
         style="stop-color:#fefced;stop-opacity:1"
         offset="0.92159998" />
      <stop
         id="stop140"
         style="stop-color:#fefced;stop-opacity:1"
         offset="1" />
    </linearGradient>
    <linearGradient
       x1="5.3374"
       y1="-30.799999"
       x2="42.062"
       y2="-30.799999"
       id="linearGradient154"
       gradientUnits="userSpaceOnUse"
       gradientTransform="matrix(0.8,0,0,0.8,-6.853e-7,28.52)">
      <stop
         id="stop156"
         style="stop-color:#805f1c;stop-opacity:1"
         offset="0" />
      <stop
         id="stop158"
         style="stop-color:#b6952a;stop-opacity:1"
         offset="0.2157" />
      <stop
         id="stop160"
         style="stop-color:#f8e87a;stop-opacity:1"
         offset="0.85100001" />
      <stop
         id="stop162"
         style="stop-color:#f8e87a;stop-opacity:1"
         offset="1" />
    </linearGradient>
    <radialGradient
       cx="28.450001"
       cy="-2.3999"
       r="3.8875"
       id="radialGradient176"
       gradientUnits="userSpaceOnUse"
       gradientTransform="matrix(0.8,0,0,-0.8,-6.853e-7,24.68)">
      <stop
         id="stop178"
         style="stop-color:#f7e35e;stop-opacity:1"
         offset="0" />
      <stop
         id="stop180"
         style="stop-color:#b6952a;stop-opacity:1"
         offset="0.72939998" />
      <stop
         id="stop182"
         style="stop-color:#805f1c;stop-opacity:1"
         offset="1" />
    </radialGradient>
    <radialGradient
       cx="35.200001"
       cy="-7.1499"
       r="2.5875001"
       id="radialGradient196"
       gradientUnits="userSpaceOnUse"
       gradientTransform="matrix(0.8,0,0,-0.8,-6.853e-7,17.08)">
      <stop
         id="stop198"
         style="stop-color:#a38925;stop-opacity:1"
         offset="0" />
      <stop
         id="stop200"
         style="stop-color:#634d11;stop-opacity:1"
         offset="1" />
    </radialGradient>
    <radialGradient
       cx="25.1"
       cy="-18.049999"
       r="14.162"
       id="radialGradient214"
       gradientUnits="userSpaceOnUse"
       gradientTransform="matrix(0.8,0,0,-0.8,-6.853e-7,-0.35999)">
      <stop
         id="stop216"
         style="stop-color:#ae933d;stop-opacity:1"
         offset="0" />
      <stop
         id="stop218"
         style="stop-color:#a98d3a;stop-opacity:1"
         offset="0.2157" />
      <stop
         id="stop220"
         style="stop-color:#997d31;stop-opacity:1"
         offset="0.498" />
      <stop
         id="stop222"
         style="stop-color:#7e6323;stop-opacity:1"
         offset="0.81569999" />
      <stop
         id="stop224"
         style="stop-color:#6b5019;stop-opacity:1"
         offset="1" />
    </radialGradient>
    <radialGradient
       cx="20.299999"
       cy="-7.0497999"
       r="2.5875001"
       id="radialGradient238"
       gradientUnits="userSpaceOnUse"
       gradientTransform="matrix(0.8,0,0,-0.8,-6.853e-7,17.24)">
      <stop
         id="stop240"
         style="stop-color:#a38925;stop-opacity:1"
         offset="0" />
      <stop
         id="stop242"
         style="stop-color:#634d11;stop-opacity:1"
         offset="1" />
    </radialGradient>
    <radialGradient
       cx="13.45"
       cy="-3"
       r="3.8875"
       id="radialGradient256"
       gradientUnits="userSpaceOnUse"
       gradientTransform="matrix(0.8,0,0,-0.8,-6.853e-7,23.72)">
      <stop
         id="stop258"
         style="stop-color:#f7e35e;stop-opacity:1"
         offset="0" />
      <stop
         id="stop260"
         style="stop-color:#b6952a;stop-opacity:1"
         offset="0.72939998" />
      <stop
         id="stop262"
         style="stop-color:#805f1c;stop-opacity:1"
         offset="1" />
    </radialGradient>
    <radialGradient
       cx="4.0497999"
       cy="-5.6001"
       r="3.4875"
       id="radialGradient276"
       gradientUnits="userSpaceOnUse"
       gradientTransform="matrix(0.8,0,0,-0.8,-6.853e-7,19.56)">
      <stop
         id="stop278"
         style="stop-color:#f7e35e;stop-opacity:1"
         offset="0" />
      <stop
         id="stop280"
         style="stop-color:#b6952a;stop-opacity:1"
         offset="0.72939998" />
      <stop
         id="stop282"
         style="stop-color:#805f1c;stop-opacity:1"
         offset="1" />
    </radialGradient>
    <radialGradient
       cx="2.25"
       cy="-8.0497999"
       r="2.5875001"
       id="radialGradient296"
       gradientUnits="userSpaceOnUse"
       gradientTransform="matrix(0.8,0,0,-0.8,-6.853e-7,15.64)">
      <stop
         id="stop298"
         style="stop-color:#f7e35e;stop-opacity:1"
         offset="0" />
      <stop
         id="stop300"
         style="stop-color:#b6952a;stop-opacity:1"
         offset="0.60780001" />
      <stop
         id="stop302"
         style="stop-color:#805f1c;stop-opacity:1"
         offset="1" />
    </radialGradient>
    <linearGradient
       x1="3.8374"
       y1="-12.675"
       x2="44.062"
       y2="-12.675"
       id="linearGradient316"
       gradientUnits="userSpaceOnUse"
       gradientTransform="matrix(0.8,0,0,0.8,-6.853e-7,28.52)">
      <stop
         id="stop318"
         style="stop-color:#c8a123;stop-opacity:1"
         offset="0" />
      <stop
         id="stop320"
         style="stop-color:#debe36;stop-opacity:1"
         offset="0.2902" />
      <stop
         id="stop324"
         style="stop-color:#fefced;stop-opacity:1"
         offset="0.92159998" />
      <stop
         id="stop326"
         style="stop-color:#fefced;stop-opacity:1"
         offset="1" />
    </linearGradient>
    <radialGradient
       cx="7.2002001"
       cy="-8.0497999"
       r="2.3125"
       id="radialGradient340"
       gradientUnits="userSpaceOnUse"
       gradientTransform="matrix(0.8,0,0,-0.8,-6.853e-7,15.64)">
      <stop
         id="stop342"
         style="stop-color:#a38925;stop-opacity:1"
         offset="0" />
      <stop
         id="stop344"
         style="stop-color:#634d11;stop-opacity:1"
         offset="1" />
    </radialGradient>
  </defs>
  <metadata
     id="metadata3844">
    <rdf:RDF>
      <cc:Work
         rdf:about="">
        <dc:format>image/svg+xml</dc:format>
        <dc:type
           rdf:resource="http://purl.org/dc/dcmitype/StillImage" />
        <dc:title></dc:title>
      </cc:Work>
    </rdf:RDF>
  </metadata>
  <g
     transform="translate(-330.76899,-498.92734)"
     id="layer1">
    <g
       transform="matrix(2.2976916,-0.16845991,-0.16845991,-2.2976916,334.42036,568.39771)"
       id="g10">
      <g
         id="g12">
        <path
           d="M 32.559,22.84 C 32.211,22.145 31.641,21 30.84,19.399 L 30,17.719 c -0.105,-0.16 -0.188,-0.32 -0.238,-0.48 -0.137,0.508 -0.282,1.094 -0.442,1.761 -0.187,0.774 -0.332,1.375 -0.441,1.801 0.293,0.078 0.547,0.227 0.762,0.438 0.293,0.293 0.437,0.64 0.437,1.043 0,0.398 -0.144,0.73 -0.437,1 -0.293,0.293 -0.641,0.437 -1.039,0.437 -0.403,0 -0.735,-0.144 -1,-0.437 -0.297,-0.27 -0.442,-0.602 -0.442,-1 0,-0.403 0.145,-0.75 0.442,-1.043 0.21,-0.239 0.476,-0.387 0.796,-0.438 L 26.762,15.52 c -0.297,0.695 -0.684,1.707 -1.16,3.039 -0.989,2.613 -1.575,4.242 -1.762,4.883 -0.106,0.293 -0.188,0.519 -0.238,0.68 0.371,0.078 0.691,0.253 0.957,0.519 0.347,0.371 0.519,0.801 0.519,1.277 0,0.508 -0.172,0.934 -0.519,1.282 -0.344,0.347 -0.774,0.519 -1.278,0.519 -0.48,0 -0.894,-0.172 -1.242,-0.519 -0.371,-0.348 -0.559,-0.774 -0.559,-1.282 0,-0.476 0.188,-0.906 0.559,-1.277 0.266,-0.266 0.586,-0.441 0.961,-0.519 -2.105,-4.403 -3.492,-7.27 -4.16,-8.602 -0.293,0.613 -0.68,1.586 -1.16,2.922 -0.453,1.277 -0.758,2.105 -0.918,2.476 0.371,0.028 0.691,0.161 0.957,0.403 0.269,0.293 0.402,0.64 0.402,1.039 0,0.398 -0.133,0.746 -0.402,1.039 -0.293,0.293 -0.641,0.441 -1.039,0.441 -0.399,0 -0.746,-0.148 -1.039,-0.441 -0.293,-0.293 -0.442,-0.641 -0.442,-1.039 0,-0.399 0.149,-0.746 0.442,-1.039 0.265,-0.242 0.586,-0.375 0.961,-0.403 l -1.204,-4.117 c -0.078,0.133 -0.16,0.266 -0.238,0.399 l -0.762,1.398 c -1.437,2.695 -2.253,4.297 -2.437,4.801 -0.055,0.133 -0.106,0.242 -0.16,0.32 0.293,0.106 0.547,0.266 0.758,0.481 0.347,0.347 0.519,0.773 0.519,1.281 0,0.504 -0.172,0.934 -0.519,1.277 -0.348,0.348 -0.774,0.524 -1.278,0.524 -0.48,0 -0.894,-0.176 -1.242,-0.524 C 9.668,26.415 9.48,25.989 9.48,25.481 c 0,-0.508 0.188,-0.934 0.559,-1.281 0.293,-0.293 0.656,-0.465 1.082,-0.52 -0.32,-1.199 -1.055,-3.988 -2.199,-8.359 -0.348,0.531 -0.856,1.613 -1.524,3.238 -0.32,0.75 -0.57,1.348 -0.757,1.801 0.16,0.082 0.304,0.187 0.437,0.32 0.242,0.238 0.363,0.547 0.363,0.918 0,0.375 -0.121,0.684 -0.363,0.922 -0.266,0.266 -0.57,0.398 -0.918,0.398 -0.348,0 -0.652,-0.132 -0.922,-0.398 C 4.973,22.254 4.84,21.946 4.84,21.598 4.84,21.227 4.973,20.918 5.238,20.68 5.453,20.465 5.707,20.333 6,20.282 5.973,20.012 5.961,19.692 5.961,19.321 5.934,18.758 5.922,18.2 5.922,17.641 c -0.75,1.785 -1.242,3 -1.481,3.641 -0.082,0.238 -0.16,0.437 -0.242,0.597 0.242,0.082 0.469,0.227 0.68,0.442 0.32,0.293 0.48,0.664 0.48,1.121 0,0.453 -0.16,0.824 -0.48,1.117 -0.32,0.32 -0.707,0.481 -1.16,0.481 -0.426,0 -0.797,-0.161 -1.117,-0.481 -0.321,-0.32 -0.481,-0.691 -0.481,-1.117 0,-0.137 0.012,-0.27 0.039,-0.402 C 1.785,23.012 1.48,22.868 1.238,22.598 0.945,22.305 0.801,21.961 0.801,21.559 c 0,-0.398 0.144,-0.746 0.437,-1.039 0.27,-0.266 0.602,-0.398 1,-0.398 H 2.559 L 2.762,18.801 3.199,15.879 C 3.281,15.348 3.375,14.333 3.48,12.84 3.586,11.215 3.707,9.04 3.84,6.321 l 1,-0.442 -1.121,15.403 C 3.855,21.254 4,21.055 4.16,20.68 L 4.238,19.321 C 4.293,18.68 4.375,18.04 4.48,17.399 4.668,16.2 4.906,15 5.199,13.801 5.227,13.719 5.426,11.786 5.801,8 5.961,6.454 6.785,5.493 8.281,5.122 9.668,4.747 10.855,4.481 11.84,4.321 14,4.133 16.492,4.04 19.32,4.04 c 5.52,0 9.707,0.265 12.559,0.8 H 32 C 31.68,4.758 31.32,4.665 30.922,4.559 28.281,3.946 23.973,3.614 18,3.559 12.934,3.532 9.012,3.825 6.238,4.442 L 6.121,4.481 C 5.988,4.481 5.867,4.465 5.762,4.442 5.172,4.305 4.945,3.989 5.078,3.481 V 3.399 C 5.188,3 5.332,2.665 5.52,2.399 5.922,2.215 6.281,2.067 6.602,1.961 c 2.586,-0.773 6.73,-1.16 12.437,-1.16 5.789,0 10.094,0.387 12.922,1.16 1.519,0.426 2.84,1.106 3.961,2.039 0.531,1.012 0.211,1.934 -0.961,2.758 C 34.855,6.84 34.746,6.907 34.641,6.961 34.613,6.665 34.602,6.36 34.602,6.04 c 0,-0.051 -0.016,-0.106 -0.043,-0.161 l 0.043,0.801 c 0.05,2.426 0.132,4.465 0.238,6.121 0.082,1.813 0.199,3.145 0.359,4 l 0.281,1.598 0.399,2.242 c 0.133,-0.027 0.266,-0.043 0.402,-0.043 0.399,0 0.746,0.137 1.039,0.402 0.266,0.293 0.399,0.641 0.399,1.04 0,0.375 -0.133,0.707 -0.399,1 -0.293,0.265 -0.64,0.402 -1.039,0.402 -0.402,0 -0.734,-0.137 -1,-0.402 -0.242,-0.239 -0.375,-0.508 -0.402,-0.801 -0.211,0.109 -0.426,0.16 -0.641,0.16 -0.343,0 -0.636,-0.117 -0.879,-0.359 -0.105,-0.106 -0.187,-0.227 -0.238,-0.36 l -0.082,0.801 v 0.32 c 0.453,0 0.856,0.16 1.199,0.481 0.321,0.343 0.481,0.746 0.481,1.199 0,0.453 -0.16,0.84 -0.481,1.16 -0.343,0.32 -0.746,0.481 -1.199,0.481 -0.453,0 -0.84,-0.161 -1.16,-0.481 -0.32,-0.32 -0.481,-0.707 -0.481,-1.16 0,-0.453 0.161,-0.856 0.481,-1.199 0.215,-0.215 0.441,-0.364 0.68,-0.442 z m 2.242,3.36 c 0.48,-0.481 0.719,-1.055 0.719,-1.719 l -0.04,-0.359 c 0.239,0.078 0.508,0.117 0.801,0.117 0.614,0 1.145,-0.211 1.598,-0.641 0.426,-0.426 0.641,-0.945 0.641,-1.558 0,-0.586 -0.188,-1.094 -0.559,-1.52 -0.402,-0.426 -0.883,-0.668 -1.441,-0.719 L 36,16.641 C 35.762,15.254 35.559,12.172 35.398,7.399 36.145,6.895 36.625,6.305 36.84,5.641 37.055,4.973 36.988,4.293 36.641,3.598 L 36.441,3.36 36.32,3.282 C 35.145,2.321 33.734,1.614 32.078,1.161 29.172,0.387 24.828,0 19.039,0 13.734,0 9.746,0.333 7.078,1 5.559,1.375 4.172,2.012 2.922,2.918 L 2.398,3.321 C 2.293,3.348 2.215,3.426 2.16,3.559 1.707,4.254 1.559,4.934 1.719,5.598 1.879,6.239 2.293,6.801 2.961,7.282 2.801,11.547 2.613,14.375 2.398,15.758 L 1.879,19.321 C 1.348,19.426 0.895,19.68 0.52,20.079 0.172,20.508 0,21 0,21.559 c 0,0.988 0.441,1.68 1.32,2.082 0.055,0.613 0.305,1.133 0.758,1.559 0.453,0.425 1,0.64 1.641,0.64 0.613,0 1.16,-0.199 1.64,-0.601 0.453,-0.426 0.707,-0.934 0.762,-1.52 H 6.16 c 0.586,0 1.078,-0.211 1.481,-0.64 0.398,-0.399 0.597,-0.891 0.597,-1.481 0,-0.613 -0.199,-1.117 -0.597,-1.519 l 1,-2.481 1.48,5.563 c -0.961,0.504 -1.441,1.281 -1.441,2.32 0,0.719 0.254,1.332 0.761,1.84 0.532,0.504 1.145,0.758 1.84,0.758 0.719,0 1.332,-0.254 1.84,-0.758 0.504,-0.508 0.758,-1.121 0.758,-1.84 0,-0.906 -0.348,-1.613 -1.039,-2.121 l 2.281,-4.442 0.438,1.481 c -0.774,0.453 -1.161,1.109 -1.161,1.961 0,0.613 0.227,1.148 0.68,1.601 0.453,0.454 0.988,0.68 1.602,0.68 0.613,0 1.148,-0.226 1.601,-0.68 0.426,-0.453 0.641,-0.988 0.641,-1.601 0,-0.828 -0.363,-1.465 -1.082,-1.918 l 0.359,-1 c 0.242,-0.75 0.481,-1.402 0.723,-1.961 l 3,6.238 c -0.828,0.535 -1.242,1.266 -1.242,2.199 0,0.723 0.254,1.336 0.761,1.84 0.532,0.508 1.145,0.762 1.84,0.762 0.719,0 1.332,-0.254 1.84,-0.762 0.504,-0.504 0.758,-1.117 0.758,-1.84 0,-1.011 -0.426,-1.757 -1.277,-2.238 0.371,-1.281 1.066,-3.172 2.078,-5.68 l 0.718,2.36 c -0.691,0.426 -1.039,1.066 -1.039,1.922 0,0.613 0.215,1.144 0.641,1.597 0.453,0.426 0.988,0.641 1.602,0.641 0.613,0 1.144,-0.215 1.597,-0.641 0.453,-0.453 0.68,-0.984 0.68,-1.597 0,-0.828 -0.359,-1.469 -1.078,-1.922 l 0.238,-0.801 1.481,3 c -0.614,0.481 -0.918,1.121 -0.918,1.922 0,0.664 0.238,1.238 0.718,1.719 0.481,0.48 1.055,0.718 1.719,0.718 0.695,0 1.281,-0.238 1.762,-0.718 z M 33.879,19.918 33.32,18.36 c -0.027,0.64 -0.066,1.332 -0.121,2.082 0.055,-0.055 0.106,-0.121 0.16,-0.203 0.161,-0.16 0.336,-0.266 0.52,-0.321 z m 1.601,0.922 c 0.106,-0.082 0.215,-0.132 0.321,-0.16 -0.856,-2.746 -1.442,-4.613 -1.762,-5.601 l 0.16,4.8 h 0.039 c 0.375,0 0.684,0.121 0.922,0.36 0.16,0.16 0.266,0.359 0.32,0.601 z M 3.719,21.282 3.84,17.918 c -0.028,0.055 -0.051,0.11 -0.078,0.161 -0.348,0.48 -0.617,0.972 -0.801,1.48 l -0.242,0.602 c 0.187,0.078 0.375,0.199 0.562,0.359 0.266,0.266 0.414,0.574 0.438,0.922 v -0.16 z m -0.117,-15 V 6.758 C 2.375,5.961 2.121,5.04 2.84,4 3,3.895 3.145,3.801 3.281,3.719 3.012,4.145 2.906,4.614 2.961,5.122 3.039,5.547 3.254,5.934 3.602,6.282 z"
           id="path14"
           style="fill:#5c4a10;fill-rule:evenodd" />
        <g
           id="g16">
          <g
             id="g18">
            <g
               id="g24">
              <path
                 d="m 33.039,22.801 c -0.184,0 -0.344,0.012 -0.48,0.039 -0.239,0.078 -0.465,0.227 -0.68,0.442 -0.32,0.343 -0.481,0.746 -0.481,1.199 0,0.453 0.161,0.84 0.481,1.16 0.32,0.32 0.707,0.481 1.16,0.481 0.453,0 0.856,-0.161 1.199,-0.481 0.321,-0.32 0.481,-0.707 0.481,-1.16 0,-0.453 -0.16,-0.856 -0.481,-1.199 -0.343,-0.321 -0.746,-0.481 -1.199,-0.481 z"
                 id="path34"
                 style="fill:url(#radialGradient26);fill-rule:evenodd" />
            </g>
          </g>
        </g>
        <g
           id="g36">
          <g
             id="g38">
            <g
               id="g44">
              <path
                 d="m 34.199,19.879 c -0.105,0 -0.211,0.016 -0.32,0.039 -0.184,0.055 -0.359,0.161 -0.52,0.321 -0.054,0.082 -0.105,0.148 -0.16,0.203 -0.027,0.211 -0.039,0.437 -0.039,0.68 v 0.199 c 0,0.133 -0.015,0.254 -0.039,0.359 0.051,0.133 0.133,0.254 0.238,0.36 0.243,0.242 0.536,0.359 0.879,0.359 0.215,0 0.43,-0.051 0.641,-0.16 -0.024,-0.051 -0.039,-0.117 -0.039,-0.199 0,-0.399 0.148,-0.747 0.441,-1.04 0.051,-0.054 0.117,-0.105 0.199,-0.16 -0.054,-0.242 -0.16,-0.441 -0.32,-0.601 -0.238,-0.239 -0.547,-0.36 -0.922,-0.36 h -0.039 z"
                 id="path52"
                 style="fill:url(#radialGradient46);fill-rule:evenodd" />
            </g>
          </g>
        </g>
        <g
           id="g54">
          <g
             id="g56">
            <g
               id="g62">
              <path
                 d="m 35.801,20.68 c -0.106,0.028 -0.215,0.078 -0.321,0.16 -0.082,0.055 -0.148,0.106 -0.199,0.16 -0.293,0.293 -0.441,0.641 -0.441,1.04 0,0.082 0.015,0.148 0.039,0.199 0.027,0.293 0.16,0.562 0.402,0.801 0.266,0.265 0.598,0.402 1,0.402 0.399,0 0.746,-0.137 1.039,-0.402 0.266,-0.293 0.399,-0.625 0.399,-1 0,-0.399 -0.133,-0.747 -0.399,-1.04 -0.293,-0.265 -0.64,-0.402 -1.039,-0.402 -0.136,0 -0.269,0.016 -0.402,0.043 -0.024,0.024 -0.051,0.039 -0.078,0.039 z"
                 id="path72"
                 style="fill:url(#radialGradient64);fill-rule:evenodd" />
            </g>
          </g>
        </g>
        <g
           id="g74">
          <g
             id="g76">
            <g
               id="g82">
              <path
                 d="M 5.922,17.641 C 5.973,17.559 6.012,17.465 6.039,17.36 L 6.16,17.079 c 0.028,-0.051 0.051,-0.106 0.078,-0.161 0.59,-1.359 0.989,-2.21 1.203,-2.558 V 14.321 L 7.48,14.282 7.52,14.2 c 0.214,-0.215 0.414,-0.305 0.601,-0.282 0.106,0 0.199,0.028 0.277,0.082 0.11,0.106 0.215,0.293 0.321,0.559 0,0.055 0.015,0.121 0.043,0.199 0.05,0.188 0.105,0.375 0.16,0.563 1.144,4.371 1.879,7.16 2.199,8.359 h 0.16 c 0.184,0 0.36,0.012 0.52,0.039 0.054,-0.078 0.105,-0.187 0.16,-0.32 0.184,-0.504 1,-2.106 2.437,-4.801 L 15.16,17.2 c 0.078,-0.133 0.16,-0.266 0.238,-0.399 0.829,-1.519 1.321,-2.359 1.481,-2.519 0.562,-0.508 1.094,-0.321 1.601,0.558 0.079,0.133 0.2,0.36 0.36,0.68 0.668,1.332 2.055,4.199 4.16,8.602 h 0.602 c 0.05,-0.161 0.132,-0.387 0.238,-0.68 0.187,-0.641 0.773,-2.27 1.762,-4.883 0.476,-1.332 0.863,-2.344 1.16,-3.039 0.105,-0.293 0.199,-0.535 0.277,-0.719 0.082,-0.187 0.133,-0.308 0.16,-0.359 0.16,-0.27 0.293,-0.414 0.403,-0.442 0.183,-0.054 0.425,0.145 0.718,0.598 0.16,0.27 0.508,0.91 1.039,1.922 0.106,0.238 0.243,0.48 0.403,0.719 0.05,0.16 0.133,0.32 0.238,0.48 l 0.84,1.68 c 0.801,1.601 1.375,2.746 1.719,3.441 0.136,-0.027 0.296,-0.039 0.48,-0.039 v -0.32 l 0.082,-0.801 c 0.024,-0.105 0.039,-0.226 0.039,-0.359 v -0.199 c 0,-0.243 0.012,-0.469 0.039,-0.68 0.055,-0.75 0.094,-1.442 0.121,-2.082 l 0.559,1.558 c 0.109,-0.023 0.215,-0.039 0.32,-0.039 l -0.16,-4.8 c 0.32,0.988 0.906,2.855 1.762,5.601 0.027,0 0.054,-0.015 0.078,-0.039 L 35.48,18.399 c -1.015,-3.305 -1.601,-5.094 -1.761,-5.359 -0.106,-0.215 -0.293,2.039 -0.559,6.761 -0.16,1.891 -0.238,2.758 -0.238,2.598 0,-0.106 -0.695,-1.531 -2.082,-4.277 -1.36,-2.696 -2.199,-4.309 -2.52,-4.84 -0.293,-0.43 -0.535,-0.629 -0.718,-0.602 -0.11,0.028 -0.243,0.188 -0.403,0.481 -0.133,0.265 -0.664,1.64 -1.597,4.121 -0.989,2.586 -1.575,4.211 -1.762,4.879 -0.215,0.64 -0.36,1.027 -0.442,1.16 -0.05,0.105 -0.117,0.078 -0.199,-0.082 -2.746,-5.731 -4.32,-8.973 -4.719,-9.719 -0.507,-0.855 -1.039,-1.027 -1.601,-0.52 -0.184,0.133 -1.012,1.559 -2.481,4.282 -1.41,2.664 -2.226,4.265 -2.437,4.797 -0.402,0.933 -0.629,1.269 -0.68,1 C 11.227,22.918 10.387,19.719 8.762,13.481 8.625,12.918 8.414,12.641 8.121,12.641 7.934,12.614 7.734,12.708 7.52,12.918 7.414,13.028 6.922,14.079 6.039,16.079 5.215,18.028 4.68,19.333 4.441,20 4.332,20.266 4.238,20.493 4.16,20.68 4,21.055 3.855,21.254 3.719,21.282 v 0.558 c 0.16,0 0.32,0.012 0.48,0.039 0.082,-0.16 0.16,-0.359 0.242,-0.597 0.239,-0.641 0.731,-1.856 1.481,-3.641 z"
                 id="path96"
                 style="fill:url(#linearGradient84);fill-rule:evenodd" />
            </g>
          </g>
        </g>
        <g
           id="g98">
          <g
             id="g100">
            <g
               id="g106">
              <path
                 d="M 34.559,5.879 34.52,5.641 C 34.199,5.375 33.359,5.106 32,4.84 H 31.879 C 29.027,4.305 24.84,4.04 19.32,4.04 16.492,4.04 14,4.133 11.84,4.321 10.855,4.481 9.668,4.747 8.281,5.122 6.785,5.493 5.961,6.454 5.801,8 5.426,11.786 5.227,13.719 5.199,13.801 4.906,15 4.668,16.2 4.48,17.399 4.375,18.04 4.293,18.68 4.238,19.321 L 4.16,20.68 C 4.238,20.493 4.332,20.266 4.441,20 4.68,19.333 5.215,18.028 6.039,16.079 c 0.883,-2 1.375,-3.051 1.481,-3.161 0.214,-0.21 0.414,-0.304 0.601,-0.277 0.293,0 0.504,0.277 0.641,0.84 1.625,6.238 2.465,9.437 2.519,9.598 0.051,0.269 0.278,-0.067 0.68,-1 0.211,-0.532 1.027,-2.133 2.437,-4.797 1.469,-2.723 2.297,-4.149 2.481,-4.282 0.562,-0.507 1.094,-0.335 1.601,0.52 0.399,0.746 1.973,3.988 4.719,9.719 0.082,0.16 0.149,0.187 0.199,0.082 0.082,-0.133 0.227,-0.52 0.442,-1.16 0.187,-0.668 0.773,-2.293 1.762,-4.879 0.933,-2.481 1.464,-3.856 1.597,-4.121 0.16,-0.293 0.293,-0.453 0.403,-0.481 0.183,-0.027 0.425,0.172 0.718,0.602 0.321,0.531 1.16,2.144 2.52,4.84 1.387,2.746 2.082,4.171 2.082,4.277 0,0.16 0.078,-0.707 0.238,-2.598 0.266,-4.722 0.453,-6.976 0.559,-6.761 0.16,0.265 0.75,2.054 1.761,5.359 l -0.281,-1.598 c -0.16,-0.855 -0.277,-2.187 -0.359,-4 C 34.734,11.145 34.652,9.106 34.602,6.68 L 34.559,5.879 z M 2.762,18.801 2.961,18.282 C 3.172,17.692 3.465,17.133 3.84,16.598 L 3.801,17.961 C 3.773,17.989 3.762,18.028 3.762,18.079 3.785,18.028 3.812,17.973 3.84,17.918 L 3.719,21.282 4.84,5.879 3.84,6.321 C 3.707,9.04 3.586,11.215 3.48,12.84 3.375,14.333 3.281,15.348 3.199,15.879 l -0.437,2.922 z"
                 id="path118"
                 style="fill:url(#linearGradient108);fill-rule:evenodd" />
            </g>
          </g>
        </g>
        <g
           id="g120">
          <g
             id="g122">
            <g
               id="g128">
              <path
                 d="m 32.84,4.079 c 1.254,0.402 2.015,0.8 2.281,1.203 C 34.934,3.254 30.707,2.106 22.441,1.84 18.414,1.735 15,1.961 12.199,2.52 l -3.039,0.922 2,-0.524 c 2.293,-0.293 5.828,-0.386 10.602,-0.277 4.879,0.133 8.57,0.613 11.078,1.438 z"
                 id="path142"
                 style="fill:url(#linearGradient130);fill-rule:evenodd" />
            </g>
          </g>
        </g>
        <g
           id="g144">
          <g
             id="g146">
            <g
               id="g152">
              <path
                 d="m 32,4.84 c 1.359,0.266 2.199,0.535 2.52,0.801 l 0.039,0.238 c 0.027,0.055 0.043,0.106 0.043,0.161 0,0.32 0.011,0.625 0.039,0.921 C 34.746,6.907 34.855,6.84 34.961,6.758 36.133,5.934 36.453,5.012 35.922,4 34.801,3.067 33.48,2.387 31.961,1.961 29.133,1.188 24.828,0.801 19.039,0.801 13.332,0.801 9.188,1.188 6.602,1.961 6.281,2.067 5.922,2.215 5.52,2.399 5.332,2.665 5.188,3 5.078,3.399 V 3.481 C 4.945,3.985 5.172,4.305 5.762,4.442 5.867,4.465 5.988,4.481 6.121,4.481 L 6.238,4.442 C 9.012,3.825 12.934,3.532 18,3.559 c 5.973,0.055 10.281,0.387 12.922,1 C 31.32,4.665 31.68,4.758 32,4.84 z M 32.84,4.079 C 30.332,3.254 26.641,2.774 21.762,2.641 16.988,2.532 13.453,2.625 11.16,2.918 l -2,0.524 3.039,-0.922 C 15,1.961 18.414,1.735 22.441,1.84 30.707,2.106 34.934,3.254 35.121,5.282 34.855,4.879 34.094,4.481 32.84,4.079 z M 3.602,6.282 C 3.254,5.934 3.039,5.547 2.961,5.122 2.906,4.614 3.012,4.145 3.281,3.719 3.145,3.801 3,3.895 2.84,4 2.121,5.04 2.375,5.961 3.602,6.758 V 6.282 z"
                 id="path164"
                 style="fill:url(#linearGradient154);fill-rule:evenodd" />
            </g>
          </g>
        </g>
        <g
           id="g166">
          <g
             id="g168">
            <g
               id="g174">
              <path
                 d="M 23.602,24.122 H 23 c -0.375,0.078 -0.695,0.253 -0.961,0.519 -0.371,0.371 -0.559,0.801 -0.559,1.277 0,0.508 0.188,0.934 0.559,1.282 0.348,0.347 0.762,0.519 1.242,0.519 0.504,0 0.934,-0.172 1.278,-0.519 0.347,-0.348 0.519,-0.774 0.519,-1.282 0,-0.476 -0.172,-0.906 -0.519,-1.277 -0.266,-0.266 -0.586,-0.441 -0.957,-0.519 z"
                 id="path184"
                 style="fill:url(#radialGradient176);fill-rule:evenodd" />
            </g>
          </g>
        </g>
        <g
           id="g186">
          <g
             id="g188">
            <g
               id="g194">
              <path
                 d="m 28.879,20.801 h -0.481 c -0.32,0.051 -0.586,0.199 -0.796,0.438 -0.297,0.293 -0.442,0.64 -0.442,1.043 0,0.398 0.145,0.73 0.442,1 0.265,0.293 0.597,0.437 1,0.437 0.398,0 0.746,-0.144 1.039,-0.437 0.293,-0.27 0.437,-0.602 0.437,-1 0,-0.403 -0.144,-0.75 -0.437,-1.043 -0.215,-0.211 -0.469,-0.36 -0.762,-0.438 z"
                 id="path202"
                 style="fill:url(#radialGradient196);fill-rule:evenodd" />
            </g>
          </g>
        </g>
        <g
           id="g204">
          <g
             id="g206">
            <g
               id="g212">
              <path
                 d="M 8.922,15.321 C 8.867,15.133 8.812,14.946 8.762,14.758 8.734,14.68 8.719,14.614 8.719,14.559 8.613,14.293 8.508,14.106 8.398,14 8.32,13.946 8.227,13.918 8.121,13.918 7.934,13.895 7.734,13.985 7.52,14.2 l -0.04,0.082 -0.039,0.039 v 0.039 c -0.214,0.348 -0.613,1.199 -1.203,2.558 -0.023,0.055 -0.05,0.11 -0.078,0.161 L 6.039,17.36 c -0.027,0.105 -0.066,0.199 -0.117,0.281 0,0.559 0.012,1.117 0.039,1.68 0,0.371 0.012,0.691 0.039,0.961 h 0.16 c 0.16,0 0.32,0.023 0.481,0.078 0.187,-0.453 0.437,-1.051 0.757,-1.801 0.668,-1.625 1.176,-2.707 1.524,-3.238 z m 17.84,0.199 1.636,5.281 h 0.481 C 28.988,20.375 29.133,19.774 29.32,19 29.48,18.333 29.625,17.747 29.762,17.239 29.602,17 29.465,16.758 29.359,16.52 28.828,15.508 28.48,14.868 28.32,14.598 28.027,14.145 27.785,13.946 27.602,14 c -0.11,0.028 -0.243,0.172 -0.403,0.442 -0.027,0.051 -0.078,0.172 -0.16,0.359 -0.078,0.184 -0.172,0.426 -0.277,0.719 z m -7.922,0 c -0.16,-0.32 -0.281,-0.547 -0.36,-0.68 -0.507,-0.879 -1.039,-1.066 -1.601,-0.558 -0.16,0.16 -0.652,1 -1.481,2.519 l 1.204,4.117 h 0.16 c 0.16,-0.371 0.465,-1.199 0.918,-2.476 0.48,-1.336 0.867,-2.309 1.16,-2.922 z"
                 id="path226"
                 style="fill:url(#radialGradient214);fill-rule:evenodd" />
            </g>
          </g>
        </g>
        <g
           id="g228">
          <g
             id="g230">
            <g
               id="g236">
              <path
                 d="m 16.762,20.918 h -0.16 c -0.375,0.028 -0.696,0.161 -0.961,0.403 -0.293,0.293 -0.442,0.64 -0.442,1.039 0,0.398 0.149,0.746 0.442,1.039 0.293,0.293 0.64,0.441 1.039,0.441 0.398,0 0.746,-0.148 1.039,-0.441 0.269,-0.293 0.402,-0.641 0.402,-1.039 0,-0.399 -0.133,-0.746 -0.402,-1.039 -0.266,-0.242 -0.586,-0.375 -0.957,-0.403 z"
                 id="path244"
                 style="fill:url(#radialGradient238);fill-rule:evenodd" />
            </g>
          </g>
        </g>
        <g
           id="g246">
          <g
             id="g248">
            <g
               id="g254">
              <path
                 d="m 11.801,23.719 c -0.16,-0.027 -0.336,-0.039 -0.52,-0.039 h -0.16 c -0.426,0.051 -0.789,0.227 -1.082,0.52 -0.371,0.347 -0.559,0.773 -0.559,1.281 0,0.504 0.188,0.934 0.559,1.277 0.348,0.348 0.762,0.524 1.242,0.524 0.504,0 0.934,-0.176 1.278,-0.524 0.347,-0.343 0.519,-0.769 0.519,-1.277 0,-0.508 -0.172,-0.934 -0.519,-1.281 -0.211,-0.215 -0.465,-0.375 -0.758,-0.481 z"
                 id="path264"
                 style="fill:url(#radialGradient256);fill-rule:evenodd" />
            </g>
          </g>
        </g>
        <g
           id="g266">
          <g
             id="g268">
            <g
               id="g274">
              <path
                 d="m 4.199,21.879 c -0.16,-0.027 -0.32,-0.039 -0.48,-0.039 -0.293,0 -0.559,0.078 -0.797,0.239 -0.11,0.054 -0.215,0.136 -0.32,0.242 -0.215,0.211 -0.364,0.453 -0.442,0.719 -0.027,0.132 -0.039,0.265 -0.039,0.402 0,0.426 0.16,0.797 0.481,1.117 0.32,0.32 0.691,0.481 1.117,0.481 0.453,0 0.84,-0.161 1.16,-0.481 0.32,-0.293 0.48,-0.664 0.48,-1.117 0,-0.453 -0.16,-0.828 -0.48,-1.121 -0.211,-0.215 -0.438,-0.36 -0.68,-0.442 z"
                 id="path284"
                 style="fill:url(#radialGradient276);fill-rule:evenodd" />
            </g>
          </g>
        </g>
        <g
           id="g286">
          <g
             id="g288">
            <g
               id="g294">
              <path
                 d="m 2.719,20.161 c -0.051,0 -0.106,-0.016 -0.16,-0.039 H 2.238 c -0.398,0 -0.73,0.132 -1,0.398 -0.293,0.293 -0.437,0.641 -0.437,1.039 0,0.402 0.144,0.75 0.437,1.039 0.242,0.27 0.551,0.414 0.922,0.442 0.078,-0.266 0.227,-0.508 0.442,-0.719 0.105,-0.106 0.21,-0.188 0.32,-0.242 C 3.16,21.918 3.426,21.84 3.719,21.84 V 21.442 C 3.695,21.094 3.547,20.786 3.281,20.52 3.094,20.36 2.906,20.239 2.719,20.161 z"
                 id="path304"
                 style="fill:url(#radialGradient296);fill-rule:evenodd" />
            </g>
          </g>
        </g>
        <g
           id="g306">
          <g
             id="g308">
            <g
               id="g314">
              <path
                 d="m 3.762,18.079 c 0,-0.051 0.011,-0.094 0.039,-0.118 L 3.84,16.598 c -0.371,0.535 -0.668,1.094 -0.879,1.684 l -0.199,0.519 -0.203,1.321 c 0.054,0.023 0.109,0.039 0.16,0.039 l 0.242,-0.602 c 0.184,-0.504 0.453,-1 0.801,-1.48 z"
                 id="path328"
                 style="fill:url(#linearGradient316);fill-rule:evenodd" />
            </g>
          </g>
        </g>
        <g
           id="g330">
          <g
             id="g332">
            <g
               id="g338">
              <path
                 d="M 6.641,20.36 C 6.48,20.309 6.32,20.282 6.16,20.282 H 6 C 5.707,20.333 5.453,20.465 5.238,20.68 4.973,20.918 4.84,21.227 4.84,21.598 c 0,0.348 0.133,0.656 0.398,0.922 0.27,0.266 0.574,0.398 0.922,0.398 0.348,0 0.652,-0.132 0.918,-0.398 C 7.32,22.282 7.441,21.973 7.441,21.598 7.441,21.227 7.32,20.918 7.078,20.68 6.945,20.547 6.801,20.442 6.641,20.36 z"
                 id="path346"
                 style="fill:url(#radialGradient340);fill-rule:evenodd" />
            </g>
          </g>
        </g>
      </g>
    </g>
  </g>
</svg>
