<?xml version="1.0" encoding="UTF-8" standalone="no"?>
<!-- Created with Inkscape (http://www.inkscape.org/) -->

<svg
   xmlns:dc="http://purl.org/dc/elements/1.1/"
   xmlns:cc="http://creativecommons.org/ns#"
   xmlns:rdf="http://www.w3.org/1999/02/22-rdf-syntax-ns#"
   xmlns:svg="http://www.w3.org/2000/svg"
   xmlns="http://www.w3.org/2000/svg"
   version="1.1"
   width="154"
   height="69"
   viewBox="0 0 153.88429 68.436959"
   id="svg2"
   xml:space="preserve"
   style="fill-rule:evenodd"><defs
     id="defs4"><style
       type="text/css"
       id="style6" /><linearGradient
       x1="3754.1001"
       y1="1625.8"
       x2="4159.6001"
       y2="2833.1001"
       id="id0"
       gradientUnits="userSpaceOnUse"><stop
         id="stop9"
         style="stop-color:#434242;stop-opacity:1"
         offset="0" /><stop
         id="stop11"
         style="stop-color:#898989;stop-opacity:1"
         offset="1" /></linearGradient><linearGradient
       x1="3391.3999"
       y1="952.44"
       x2="4071.8999"
       y2="2095.6001"
       id="id1"
       gradientUnits="userSpaceOnUse"><stop
         id="stop14"
         style="stop-color:#434242;stop-opacity:1"
         offset="0" /><stop
         id="stop16"
         style="stop-color:#2b2a29;stop-opacity:1"
         offset="1" /></linearGradient><linearGradient
       x1="3391.3999"
       y1="952.44"
       x2="4071.8999"
       y2="2095.6001"
       id="id1-9"
       gradientUnits="userSpaceOnUse"><stop
         id="stop14-7"
         style="stop-color:#434242;stop-opacity:1"
         offset="0" /><stop
         id="stop16-7"
         style="stop-color:#2b2a29;stop-opacity:1"
         offset="1" /></linearGradient><linearGradient
       x1="3754.1001"
       y1="1625.8"
       x2="4159.6001"
       y2="2833.1001"
       id="id0-8"
       gradientUnits="userSpaceOnUse"><stop
         id="stop9-2"
         style="stop-color:#434242;stop-opacity:1"
         offset="0" /><stop
         id="stop11-9"
         style="stop-color:#898989;stop-opacity:1"
         offset="1" /></linearGradient></defs><metadata
     id="metadata29"><rdf:RDF><cc:Work><dc:format>image/svg+xml</dc:format><dc:type
           rdf:resource="http://purl.org/dc/dcmitype/StillImage" /><cc:license
           rdf:resource="http://creativecommons.org/licenses/publicdomain/" /><dc:publisher><cc:Agent
             rdf:about="http://openclipart.org/"><dc:title>Openclipart</dc:title></cc:Agent></dc:publisher><dc:title></dc:title></cc:Work><cc:License
         rdf:about="http://creativecommons.org/licenses/publicdomain/"><cc:permits
           rdf:resource="http://creativecommons.org/ns#Reproduction" /><cc:permits
           rdf:resource="http://creativecommons.org/ns#Distribution" /><cc:permits
           rdf:resource="http://creativecommons.org/ns#DerivativeWorks" /></cc:License></rdf:RDF></metadata><g
     transform="matrix(0.01805849,0.00447037,-0.00447029,0.01805867,15.592372,-24.447165)"
     id="Layer_x0020_1"
     style="fill-rule:evenodd"><polygon
       points="2265,3130 6001,1658 7658,0 3154,573 0,3488 "
       id="polygon19"
       style="fill:url(#id1-9)" /><path
       d="m 2234,3125 c -122,186 -226,383 -313,588 5,-2 10,-5 13,-11 559,-1036 2342,-568 2343,-575 189,-1341 2201,-1471 2955,-1119 -165,-102 -339,-190 -518,-264 -532,-293 -540,-385 -494,-494 46,-109 -2810,-53 -3937,1171 157,243 120,419 -50,705 z"
       id="path21"
       style="fill:url(#id0-8)" /><line
       y1="3251"
       x2="1048"
       x1="1047"
       y2="3563"
       class="fil2 str0"
       id="line23"
       style="fill:none;stroke:#434242;stroke-width:70.55000305" /><circle
       cx="0"
       cy="0"
       r="161"
       transform="matrix(-1,0.0027191,0.0027191,1,1048.6,3690)"
       id="circle25"
       style="fill:#434242;stroke:#434242;stroke-width:7.61999989" /><path
       d="m 1210,3690 c 0,0 -90,897 16,1058 32,49 7,82 -49,103 -6,2 -37,-112 -44,-110 -7,2 11,120 4,121 -122,28 -322,16 -433,-15 -6,-2 112,-312 107,-314 -9,-3 -140,303 -147,299 -150,-66 410,-455 225,-1114 159,-204 320,-28 320,-28 z"
       id="path27"
       style="fill:#434242" /></g></svg>