<?xml version="1.0" encoding="UTF-8" standalone="no"?>
<!-- Created with Inkscape (http://www.inkscape.org/) -->

<svg
   xmlns:dc="http://purl.org/dc/elements/1.1/"
   xmlns:cc="http://creativecommons.org/ns#"
   xmlns:rdf="http://www.w3.org/1999/02/22-rdf-syntax-ns#"
   xmlns:svg="http://www.w3.org/2000/svg"
   xmlns="http://www.w3.org/2000/svg"
   version="1.1"
   width="81.903687"
   height="38.598217"
   id="svg3466">
  <defs
     id="defs3468" />
  <metadata
     id="metadata3471">
    <rdf:RDF>
      <cc:Work
         rdf:about="">
        <dc:format>image/svg+xml</dc:format>
        <dc:type
           rdf:resource="http://purl.org/dc/dcmitype/StillImage" />
        <dc:title></dc:title>
      </cc:Work>
    </rdf:RDF>
  </metadata>
  <g
     transform="translate(-510.47673,-404.49166)"
     id="layer1">
    <path
       d="m 575.77881,403.97501 -25.21598,2.69787 -0.25741,0.0275 -25.21596,2.69787 c 0,0 -9.38105,2.63593 -11.00139,4.15107 -1.62032,1.51522 -5.8149,2.55479 -2.15366,18.80562 3.67122,16.24984 18.20477,10.38908 24.86079,5.96187 6.65596,-4.42713 10.19385,-18.62445 10.31485,-21.61142 -0.26465,-1.16334 0.14632,-4.34155 3.87452,-4.78048 3.73662,-0.35945 4.81071,2.65959 4.79814,3.8526 0.76011,2.89269 7.21159,16.02124 14.6535,18.94004 7.44198,2.91886 22.88645,5.57223 23.03669,-11.08646 0.15032,-16.65863 -4.16923,-16.78727 -6.08334,-17.92433 -1.9042,-1.13805 -11.63056,-1.72967 -11.63056,-1.72967 z m -15.40783,2.93026 -19.87973,2.12695 c 0,0 4.59539,2.61253 5.69717,4.48731 1.79524,-3.15609 6.6889,-4.40063 9.5007,-0.95668 0.65474,-2.02265 0.20849,-3.9476 4.67193,-5.65679 z"
       id="path11"
       style="fill:#000000;fill-rule:evenodd" />
  </g>
</svg>
